<svg xmlns="http://www.w3.org/2000/svg" width="24" height="24" fill="none" stroke="currentColor" stroke-width="2" stroke-linecap="round" stroke-linejoin="round" class="feather feather-edit"><path d="M11 4h2v2h-2z"/><path d="M16 4h2v2h-2z"/><path d="M4 11h2v2H4z"/><path d="M4 16h2v2H4z"/><path d="M4 6h2v2H4z"/><path d="M16 6h2v2h-2z"/><path d="M11 16h2v2h-2z"/><path d="M11 11h2v2h-2z"/><path d="M16 11h2v2h-2z"/><path d="M16 16h2v2h-2z"/><path d="M4 11h2v2H4z"/><path d="M4 16h2v2H4z"/><path d="M4 6h2v2H4z"/><path d="M16 6h2v2h-2z"/><path d="M11 16h2v2h-2z"/><path d="M11 11h2v2h-2z"/><path d="M16 11h2v2h-2z"/><path d="M16 16h2v2h-2z"/></svg>